<svg data-name="Layer 1" id="Layer_1" viewBox="0 0 471.53 457.14"
    xmlns="http://www.w3.org/2000/svg">
    <polygon fill="#fcfcfc"
        points="17.59 431.64 17.89 238.58 225.81 30.54 432.97 237.69 398.88 263.91 391.06 270.16 387.27 275.91 385.05 283.07 384.79 431.31 17.59 431.64" />
    <path
        d="M225.81,30.54l-207.92,208H.37c0-6.11-1-12.56.39-18.41.86-3.51,5.59-6.07,8.57-9Q109.67,110.78,209.84,10.29C217.58,2.48,225-2.31,236,1.13Q340.77,106,445.7,210.64c7.63,7.58,13.73,14.66,8.08,27.05H433Z"
        fill="#131313" />
    <path
        d="M0,455.82V438.36c9.29-7.31,19.73-7.16,30.44-7.15,117.3.15,234.59.1,354.35.1V412c0-39.66.67-79.34-.38-119-.35-13.25,3.08-22.47,14.47-29.1,10.61,1.84,11.43,9.34,11.38,18.43-.27,48.9-.13,97.81-.13,146.62l24.9,8.61v18.25Z"
        fill="#060606" />
    <path
        d="M308.75,382.72c-11.16,13.66-24.28,19.15-41.4,18.48-28.63-1.12-57.34-.13-86-.37-22.69-.18-34.5-11.61-34.74-33.71-.29-26.14-2.12-52.48.4-78.38,4-40.89,27.71-80,81.39-80.79,21.94-.32,38.72,7.6,54.33,22.08,17.07,15.83,25.92,34.61,26,57.65C308.83,318.88,308.75,350.08,308.75,382.72ZM283.4,375c0-30.54.55-59.21-.31-87.82-.28-9.23-1.79-20.22-7-27.15-12.58-16.62-28.14-27.26-51.92-27.33-26-.08-49.35,26-51.63,51.44-2.67,29.9-.62,60.23-.62,90.86Z"
        fill="#131313" />
    <path
        d="M283.4,375H171.88c0-30.63-2-61,.62-90.86,2.28-25.47,25.62-51.52,51.63-51.44,23.78.07,39.34,10.71,51.92,27.33,5.25,6.93,6.76,17.92,7,27.15C284,315.83,283.4,344.5,283.4,375Z"
        fill="#2dc76e" />
    <circle cx="460.97" cy="446.58" r="10.56" />
</svg>