<svg data-name="Layer 1" id="Layer_1" viewBox="0 0 492.9 492.49" xmlns="http://www.w3.org/2000/svg">
    <path
        d="M420.89,302.7c37.79,10.9,60.84,35.79,70.07,73.81.67,2.72,1.29,5.46,1.94,8.19v23.1c-.65,2.41-1.39,4.79-1.93,7.22-5.31,24.08-17.59,43.64-37.59,58.22a68.69,68.69,0,0,0-7.54-32.8c14.45-16.32,20.23-35.36,16.11-56.71-4.86-25.18-19.89-42.22-44-51-1.43-.52-3.2-.09-4.82-.1l-3.82-.89c-5.73-.81-11.46-2.19-17.2-2.25-4.52,0-9.05,1.55-13.57,2.42.65-1.21,1.05-2.67,2-3.59,9.39-9.28,20-16.77,32.34-21.67C415.61,305.53,418.21,304,420.89,302.7Z"
        fill="#98bbe4" />
    <path
        d="M492.9,108.49c-2.56,8.49-4.54,17.2-7.79,25.42-6.49,16.44-17.32,29.69-31.71,40a68.91,68.91,0,0,0-7.57-32.76c14.45-16.33,20.24-35.37,16.12-56.72-4.86-25.18-19.89-42.22-44-51-1.43-.52-3.2-.08-4.82-.09l-3.79-.9c-1.75-.63-3.52-1.8-5.26-1.77-6.87.1-13.73.58-20.6.92-3.24-.92-1-2.5-.15-3.26,9.33-8.27,19-16,30.86-20.54,2.9-1.1,5.62-2.68,8.43-4,38.07,12,60.86,37.8,69.09,76.7.42,2,.82,4,1.23,5.93Z"
        fill="#98bbe4" />
    <path d="M405.38,491.59a4.53,4.53,0,0,0-.05.9H388a5.32,5.32,0,0,0-.05-.89Z" fill="#fef5c7" />
    <path
        d="M63.6,360.66c-22.24-12.33-38.85-30.14-50.16-52.75a125.38,125.38,0,0,1,54.92-168.1c27.62-14.29,56.69-17.84,87-10.38-1.1.58-2.16,1.25-3.3,1.74-8.61,3.7-17.62,6.7-25.76,11.24-7.54,4.2-14.17,10.05-21.19,15.17l-1.94,1-8.77,2c-1.09-.15-2.21-.2-3.28-.45-6.17-1.5-6.93-1-7.28,5.17a90.3,90.3,0,0,0-32.16,25.39c-19.09,23.87-25.85,51.1-19.59,81.06,4.49,21.46,15.11,39.54,32.56,53.26-.29,3.93-.76,7.86-.85,11.8C63.62,344.77,63.65,352.72,63.6,360.66Z"
        fill="#7bacde" />
    <path
        d="M105.1,157.58c7-5.12,13.65-11,21.19-15.17,8.14-4.54,17.15-7.54,25.76-11.24,1.14-.49,2.2-1.16,3.3-1.74a120.84,120.84,0,0,1,55.3,29.36c5.51,5.08,10.39,10.84,15.56,16.3l8.65,13.36c.26.59.46,1.2.77,1.75,14.71,26.22,18.91,54.19,14,83.69-2.51,15.15-8.38,29.06-15.59,42.48q-3.91,6.11-7.81,12.21c-2.19,2.29-4.44,4.53-6.56,6.87-9.2,10.14-19.5,18.88-31.7,25.24q-.56-17.79-1.1-35.58c4.65-4.51,9.77-8.63,13.87-13.59,17.3-20.86,23.48-45.34,20.44-71.77-2.81-24.34-14-44.89-32.8-61-17.14-14.65-37-22.54-59.51-23C121,155.61,113,156.93,105.1,157.58Z"
        fill="#98bbe4" />
    <path
        d="M186.9,325.11q.56,17.79,1.1,35.58C156.1,378.81,122.66,382,87.75,371.1c0-9.27,0-18.54.07-27.81a17.93,17.93,0,0,1,.81-5.61c4.1-11.86,13.47-18.5,24.17-23.56,2-.93,4.79-.81,7-.3,6.71,1.52,12.94.1,19.1-2.32,8-3.13,13-9.42,17.38-16.39,5.56,4.49,11,9.06,16.69,13.45C178.83,313.1,184.33,317.85,186.9,325.11Z"
        fill="#ace094" />
    <path
        d="M422.58,3.72c-2.81,1.36-5.53,2.94-8.43,4C402.28,12.26,392.62,20,383.29,28.3c-.86.76-3.09,2.34.15,3.26l-4.13,1.79c-1.45,0-3-.31-4.34.14a65,65,0,0,0-33.32,25.34c-17.48,25.62-15.17,58.51,5.69,82.28A63.64,63.64,0,0,0,339.78,174c-3.47-2.79-7.53-5.09-10.3-8.45-6.74-8.22-12.89-16.93-19.27-25.44q-2.79-6.68-5.59-13.34c-2.68-10.89-4.74-21.81-4.24-33.14,1.56-35.41,17.84-62.1,47.81-80.47A89.85,89.85,0,0,1,398.53,0C406.57.28,414.56,2.44,422.58,3.72Z"
        fill="#7bacde" />
    <path
        d="M420.89,302.7c-2.68,1.32-5.28,2.83-8.05,3.93-12.35,4.9-22.95,12.39-32.34,21.67-.94.92-1.34,2.38-2,3.59l0-.06-1.05.83a2.09,2.09,0,0,1-.86.12,41.16,41.16,0,0,0-6,1.54c-31.62,13.37-48.32,49.32-37.16,81.79,3,8.74,8.85,16.5,13.39,24.71-4.82,10.29-7.57,21-7,32.46-18.74-13.14-30.37-31.19-36.44-53-4.05-14.61-3.65-29.4-1.43-44.23l4.5-15.15c.37-.69.81-1.36,1.12-2.08,10.75-25,28.56-42.92,54-52.61,8.8-3.36,18.37-4.69,27.6-6.95l15.06.06Z"
        fill="#7bacde" />
    <path
        d="M405.38,491.59H388l-26-6.1c.33-4.75.26-9.57,1-14.24,4.86-28.49,34.87-49.29,62.9-44.35,3.1.54,6.29.63,9.43.93l-.15.05,1.32,1q4.65,5.79,9.32,11.56a68.69,68.69,0,0,1,7.54,32.8C439.25,484.27,423,489.76,405.38,491.59Z"
        fill="#fde87d" />
    <path
        d="M156.3,295.11c-4.37,7-9.4,13.26-17.38,16.39-6.16,2.42-12.39,3.84-19.1,2.32-2.23-.51-5-.63-7,.3-10.7,5.06-20.07,11.7-24.17,23.56a17.93,17.93,0,0,0-.81,5.61c-.09,9.27-.06,18.54-.07,27.81L63.61,360.66c0-7.94,0-15.89.18-23.83.09-3.94.56-7.87.85-11.8l11.73-15.17c1.28-.92,2.61-1.78,3.83-2.77Q94,295.81,107.86,284.5c2.35,3.73,4,8.23,7.19,11,7.77,6.89,24.59,5.35,28.75-11.11Z"
        fill="#97d97b" />
    <path
        d="M435.35,427.84c-3.14-.3-6.33-.39-9.43-.93-28-4.94-58,15.86-62.9,44.35-.79,4.67-.72,9.49-1,14.24L339.8,473.28c-.54-11.44,2.21-22.17,7-32.46l11.81-14.51c9.24-7.21,19.22-12.76,31.19-13.8l12.68,0C415.3,413.65,426.34,418.57,435.35,427.84Z"
        fill="#fce35b" />
    <path
        d="M304.62,126.75q2.79,6.67,5.59,13.34-30.46,19.13-60.91,38.29c-5,3.14-9.63,6.7-14.44,10.07l-8.65-13.36Q258.43,155,290.66,135C295.25,132.13,300,129.49,304.62,126.75Z"
        fill="#c8eefd" />
    <path
        d="M306.43,360.86,301.93,376c-15.86-9.79-31.76-19.52-47.57-29.39-9.44-5.89-18.74-12-28.1-18q3.9-6.1,7.81-12.21c16.46,10.31,32.88,20.68,49.39,30.9C291,352,298.77,356.34,306.43,360.86Z"
        fill="#c8eefd" />
    <path
        d="M445.83,141.14a68.91,68.91,0,0,1,7.57,32.76c-13.36,10.82-28.87,16.22-45.72,18.28l-3.33.4H389l-27-6.24c.34-4,.55-7.94,1-11.89,3-24.58,27.86-46.8,52.59-46.64,7,0,13.93,1.15,20.89,1.76Z"
        fill="#f27c7c" />
    <path d="M389,192.58h15.36q-.09,53.35-.17,106.7l-15.06-.06Q389,245.91,389,192.58Z"
        fill="#c9eefd" />
    <path
        d="M409.28,331.72l3.82.89a42.42,42.42,0,0,1,19.39,17.27c13.29,22.32,1.17,53.73-23.18,59.93-23-7.69-34.66-31.5-25.88-54C388.09,343.86,396.4,335.16,409.28,331.72Z"
        fill="#fde4c1" />
    <path
        d="M409.31,409.81c24.35-6.2,36.47-37.61,23.18-59.93a42.42,42.42,0,0,0-19.39-17.27c1.62,0,3.39-.42,4.82.1,24.14,8.8,39.17,25.84,44,51,4.12,21.35-1.66,40.39-16.11,56.71q-4.66-5.78-9.32-11.56l-1.32-1,.15-.05c-9-9.27-20.05-14.19-32.85-15.37Z"
        fill="#6099d5" />
    <path
        d="M409.31,409.81l-6.81,2.66-12.68,0c-4.38-1.81-8.9-3.32-13.1-5.47-11.58-5.92-17.69-16.15-21.35-28.16,0-1.12,0-2.25-.09-3.36-1.37-17.38,5.29-30.84,19.69-40.56a8,8,0,0,0,1.6-2.18,2.09,2.09,0,0,0,.86-.12l1.05-.83,0,.06c4.52-.87,9.05-2.46,13.57-2.42,5.74.06,11.47,1.44,17.2,2.25-12.88,3.44-21.19,12.14-25.85,24.08C374.65,378.31,386.3,402.12,409.31,409.81Z"
        fill="#fcd1a4" />
    <path
        d="M409.3,32.41l3.79.9c1.42.73,2.9,1.36,4.25,2.2,14.68,9,22,22.35,20.45,39.4-1.44,16.34-10.1,28.25-25.61,34.63-5.84-3.77-12.72-6.58-17.32-11.51-10.84-11.61-13.58-25.86-8.61-41C390,45.49,397.62,36.88,409.3,32.41Z"
        fill="#fde4c1" />
    <path
        d="M412.18,109.54c15.51-6.38,24.17-18.29,25.61-34.63,1.51-17-5.77-30.36-20.45-39.4-1.35-.84-2.83-1.47-4.25-2.2,1.62,0,3.39-.43,4.82.09,24.15,8.8,39.18,25.84,44,51,4.12,21.35-1.67,40.39-16.12,56.72l-9.33-11.57c-3-2.56-5.65-5.95-9.11-7.51-8.09-3.67-16.58-6.46-24.91-9.6Z"
        fill="#6099d5" />
    <path
        d="M412.18,109.54l-9.7,2.92-12.6.69c-2.66-1-5.33-1.87-8-2.87-12.83-4.91-20.69-14.54-25.54-27-.21-6.63-1.48-13.44-.41-19.86,2.31-13.92,10.87-23.68,23.35-30.06l4.13-1.79c6.87-.34,13.73-.82,20.6-.92,1.74,0,3.51,1.14,5.26,1.77C397.62,36.88,390,45.49,386.25,57.06c-5,15.11-2.23,29.36,8.61,41C399.46,103,406.34,105.77,412.18,109.54Z"
        fill="#fcd1a4" />
    <path
        d="M156.3,295.11l-12.5-10.68c0-3.52.22-7.07-.11-10.56-.38-3.86,1.13-5.95,4.42-8,9.68-5.95,16.93-14.52,18.37-25.79,1.54-12,.89-24.24,1.2-36.38q0-10.08,0-20.17c1.68-11.45-7-19.17-15.49-19.23-15.07-.1-30.13,0-45.2-.13-2.58,0-5.15-1.16-7.73-1.78l3.88-3.87,1.94-1c7.93-.65,15.88-2,23.8-1.81,22.52.47,42.37,8.36,59.51,23,18.82,16.08,30,36.63,32.8,61,3,26.43-3.14,50.91-20.44,71.77-4.1,5-9.22,9.08-13.87,13.59-2.57-7.26-8.07-12-13.91-16.55C167.35,304.17,161.86,299.6,156.3,295.11Z"
        fill="#5f99d6" />
    <path
        d="M76.37,309.86,64.64,325c-17.45-13.72-28.07-31.8-32.56-53.26-6.26-30,.5-57.19,19.59-81.06a90.44,90.44,0,0,1,32.16-25.4q0,8.17,0,16.35c-20,29.42-25.56,61.79-18.43,96.22C67.69,288.83,72.65,299.22,76.37,309.86Z"
        fill="#3c87cf" />
    <path
        d="M83.85,181.66q0-8.17,0-16.35c.35-6.14,1.11-6.66,7.28-5.16,1.07.25,2.19.3,3.28.45l4.89,1.82c2.58.62,5.15,1.75,7.73,1.78,15.07.18,30.13,0,45.2.13,8.47.06,17.17,7.78,15.49,19.23-18.2-1-36.78,3-54.49-4.62-3.15-1.36-5.39.37-5.28,4.43.18,6.71,0,13.44,0,20.16l.08.25H84Z"
        fill="#918291" />
    <path d="M99.28,162.42l-4.89-1.82,8.77-2Z" fill="#3d87cf" />
    <path
        d="M362,186.34,339.78,174a63.64,63.64,0,0,1,7.56-32.87l11.8-14.44c9.07-7.19,19-12.37,30.74-13.52l12.6-.69c8.33,3.14,16.82,5.93,24.91,9.6,3.46,1.56,6.1,5,9.11,7.51-7-.61-13.92-1.71-20.89-1.76-24.73-.16-49.63,22.06-52.59,46.64C362.55,178.4,362.34,182.38,362,186.34Z"
        fill="#ed6162" />
    <path
        d="M359.14,126.67l-11.8,14.44c-20.86-23.77-23.17-56.66-5.69-82.28A65,65,0,0,1,375,33.49c1.31-.45,2.89-.12,4.34-.14-12.48,6.38-21,16.14-23.35,30.06-1.07,6.42.2,13.23.4,19.86-.19,8.08-.88,16.18-.43,24.23C356.28,113.93,358,120.28,359.14,126.67Z"
        fill="#3d87cf" />
    <path
        d="M376.57,332.78A8,8,0,0,1,375,335c-14.4,9.72-21.06,23.18-19.69,40.56.09,1.11.06,2.24.09,3.36-.33.52-.94,1-.95,1.56-.25,9.39-1.05,18.83-.4,28.16.42,6,3,11.81,4.61,17.71l-11.81,14.51c-4.53-8.21-10.38-16-13.38-24.71-11.16-32.47,5.54-68.42,37.16-81.79A41.16,41.16,0,0,1,376.57,332.78Z"
        fill="#3d87cf" />
    <path d="M378.48,331.83l-1.05.83Z" fill="#98bbe4" />
    <path d="M435.2,427.89l1.32,1Z" fill="#fce35b" />
    <path
        d="M167.68,203.73c-.31,12.14.34,24.4-1.2,36.38C165,251.38,157.79,260,148.11,265.9c-3.29,2-4.8,4.11-4.42,8,.33,3.49.09,7,.11,10.56-4.16,16.46-21,18-28.75,11.11-3.17-2.81-4.84-7.31-7.19-11q.12-7.67.22-15.34c9.17,2.65,18.39,4.51,28.76,1.58l-4.94-2.55C116.41,260.05,108,247.53,108,229.74q0-13,0-26l-.08-.25Z"
        fill="#fdd1a3" />
    <path
        d="M108.08,269.16q-.1,7.68-.22,15.34Q94,295.79,80.2,307.09c-1.22,1-2.55,1.85-3.83,2.77-3.72-10.64-8.68-21-11-32-7.13-34.43-1.56-66.8,18.43-96.22L84,203.77c0,8.95,0,17.9-.1,26.85a39,39,0,0,0,12.14,29.2C99.68,263.33,104.05,266.07,108.08,269.16Z"
        fill="#5f99d6" />
    <path
        d="M358.63,426.31c-1.61-5.9-4.19-11.73-4.61-17.71-.65-9.33.15-18.77.4-28.16,0-.53.62-1,.95-1.56,3.66,12,9.77,22.24,21.35,28.16,4.2,2.15,8.72,3.66,13.1,5.47C377.85,413.55,367.87,419.1,358.63,426.31Z"
        fill="#6099d5" />
    <path
        d="M359.14,126.67c-1.12-6.39-2.86-12.74-3.21-19.17-.45-8,.24-16.15.43-24.23,4.86,12.47,12.72,22.1,25.55,27,2.64,1,5.31,1.92,8,2.87C378.16,114.3,368.21,119.48,359.14,126.67Z"
        fill="#6099d5" />
    <path
        d="M167.68,203.73l-59.78-.2c0-6.72.21-13.45,0-20.16-.11-4.06,2.13-5.79,5.28-4.43,17.71,7.61,36.29,3.59,54.49,4.62Q167.69,193.64,167.68,203.73Z"
        fill="#a79ba6" />
    <path
        d="M108.08,269.16c-4-3.09-8.4-5.83-12-9.34a39,39,0,0,1-12.14-29.2c.06-9,.07-17.9.1-26.85h24q0,13,0,26c0,17.79,8.42,30.31,23.91,38.45l4.94,2.55C126.47,273.67,117.25,271.81,108.08,269.16Z"
        fill="#febc86" />
</svg>