<svg data-name="Layer 1" id="Layer_1" viewBox="0 0 452.68 452.97"
    xmlns="http://www.w3.org/2000/svg">
    <path
        d="M0,358.3V317.6a9.25,9.25,0,0,0,1-1.8c3.32-12.3,11-20.65,22.73-25.5,3.09-1.29,6.06-2.86,9.08-4.3a4.89,4.89,0,0,0,.75-.3c1.32.06,2.65.17,4,.17H327.87c1.32,0,2.64-.12,4-.19h21.34a2.73,2.73,0,0,0,.61.32l17.88,9.26c.26,15,.8,30,.65,45-.08,7.75-1.12,15.41-7.19,21.53-7.45,7.51-14.45,15.45-21.59,23.26-4.85,5.31-9.7,10.63-14.37,16.09-7.22,8.44-15.41,13.49-27.39,13.12-24.45-.75-48.93-.15-73.4-.24q-91.26-.33-182.51-.79c-9.92-10.61-19.75-21.3-29.77-31.81C9.51,374.53,2.91,367.72,0,358.3Zm130,35.39c.61,2.11,1.3,4.19,1.8,6.32,1.08,4.61,3.8,6.39,8.62,6.21,8.69-.32,17.39-.09,26.09-.09q40.25,0,80.5,0c3.24,0,5.83-.64,7-4,2.65-7.78,5.45-15.52,7.9-23.36,1.25-4-1.11-7-5.32-7.15-2.64-.12-5.3.09-7.95.15-14,0-28-.12-41.93-.14q-37.51,0-75,0-9.25,0-6.35,8.81C126.76,384.91,128.43,389.28,130,393.69Zm188.26-76a24.65,24.65,0,0,0,.09,49.3,24.65,24.65,0,1,0-.09-49.3ZM92.89,342.29a24.63,24.63,0,1,0-49.26,0A25,25,0,0,0,68.1,367,24.74,24.74,0,0,0,92.89,342.29Zm106.43-6.55h0v7a8.63,8.63,0,0,0,0,.88c.42,4.12,3,6.78,6.76,6.67,4.06-.11,6.31-2.5,6.49-6.35.27-5.41.27-10.86,0-16.27-.17-3.84-2.38-6.28-6.41-6.5-3.66-.19-6.46,2.47-6.82,6.6C199.14,330.44,199.32,333.09,199.32,335.74Zm-12,0h0q0-3.52,0-7.05a6.48,6.48,0,0,0,0-.88c-.52-4.12-3.19-6.8-6.84-6.62-4,.21-6.25,2.62-6.42,6.47-.24,5.42-.23,10.86,0,16.27.18,3.85,2.4,6.25,6.46,6.38,3.71.12,6.39-2.45,6.75-6.65C187.47,341.05,187.29,338.4,187.29,335.76Zm-38.72-.18c0,2.78-.1,5.57,0,8.35.18,3.76,2.27,6,6,6.38a6.22,6.22,0,0,0,7-5.75,156,156,0,0,0,0-17.57,6.27,6.27,0,0,0-7.07-5.76c-3.66.47-5.8,2.65-6,6.43C148.48,330.3,148.57,332.94,148.57,335.58Zm89.49.55v-7.48c0-.29,0-.58,0-.87-.28-3.79-2.87-6.5-6.32-6.59a6.47,6.47,0,0,0-6.8,6.12c-.28,5.56-.27,11.14,0,16.7a6.45,6.45,0,0,0,7,6.33c3.48-.19,6-2.84,6.12-6.73C238.13,341.12,238.05,338.62,238.06,336.13Zm-101.83-.32c0-2.65.12-5.31,0-8-.21-3.85-2.85-6.53-6.34-6.66a6.55,6.55,0,0,0-6.82,6.62c-.18,5.3-.18,10.62,0,15.92a6.49,6.49,0,0,0,6.79,6.62c3.53-.07,6.14-2.68,6.36-6.59C136.35,341.12,136.23,338.46,136.23,335.81Zm114.15-.18h0v7.08c0,.29,0,.59,0,.88.28,3.94,2.71,6.59,6.22,6.75a6.46,6.46,0,0,0,7-6.44c.21-5.44.21-10.91,0-16.35a6.49,6.49,0,0,0-6.63-6.36,6.58,6.58,0,0,0-6.5,6.49C250.25,330.32,250.38,333,250.38,335.63Z"
        fill="#f9c501" />
    <path
        d="M222.12,157.54c-11.07-34.74-8.47-68.28,10.46-99.64C252.47,25,282,6,320.22.86A6.64,6.64,0,0,0,322,0H346.8c2.91.61,5.82,1.26,8.74,1.83C372.26,5,387.84,11,401.64,21.14l1.72,1,.05,0,.95.81,0,0a21.07,21.07,0,0,0,1.92,3.3c15.87,18.88,26.32,40.27,28.47,65,1,11.28,1.31,22.62-1,34.09-5.69,28.49-19.08,52.16-41.65,70.42-20.64,16.7-44,26.49-71,26.39-1.08-1.91-2.27-3.76-3.21-5.73-5.35-11.2-14-18.09-26.41-19.37-6.54-.67-13.19-.22-19.78-.28l-16-.19c-4.92-10.46-9.92-20.88-14.72-31.4-2.37-5.2-6.51-7.25-11.84-7.57C226.82,157.45,224.47,157.55,222.12,157.54ZM390.1,64c-5.85-.45-10.52,1.83-14.6,5.92q-28.39,28.53-56.91,56.93c-4.45,4.45-6,4.43-10.58-.1-5-5-10-10-15-15-7.5-7.41-18-7.73-24.8-.8s-6.29,17.12,1,24.48c9.65,9.73,19.39,19.39,29.09,29.07,8,10.19,18.28,12.11,26,4.42q38.26-38,76.27-76.21c5-5,6.1-11.06,3.87-17.51C402.14,68.59,397.28,64.69,390.1,64Z"
        fill="#65c841" />
    <path
        d="M36.29,452.84c-7.32,0-14.65.14-22,.05S3.17,448,0,442.34v-84c2.91,9.42,9.51,16.23,16.09,23.12,10,10.51,19.85,21.2,29.77,31.81,0,.27,0,.55,0,.83-.26,3.29-.77,6.58-.72,9.86C45.3,434.54,46.43,445.4,36.29,452.84Z"
        fill="#5a5a5a" />
    <path
        d="M33.53,285.7a4.89,4.89,0,0,1-.75.3c-6.56,0-13.15-.39-19.69,0C7.28,286.36,3,284.58,0,279.56V260.1c3.77-5.38,9.15-6.17,15.26-6,11.17.3,22.34.08,33.51.07a33.89,33.89,0,0,1-1.53,4.49C42.71,267.69,38.11,276.69,33.53,285.7Z"
        fill="#5a5a5a" />
    <path
        d="M33.53,285.7c4.58-9,9.18-18,13.71-27.05a33.89,33.89,0,0,0,1.53-4.49c1.71-2.72,3.6-5.35,5.07-8.19,4.6-8.89,9.28-17.75,13.48-26.82,6.21-13.4,15.91-21.81,31.09-22.28,10.42-.32,20.87,0,31.3.12l103.46-.25c2.2,0,4.41-.15,6.61-.23l15.94.05,16,.19a25,25,0,0,0,2.46.9c11,2.68,18.47,9.42,23.35,19.56S307.74,237,312.73,247c6.44,12.86,12.74,25.78,19.1,38.67-1.32.07-2.64.19-4,.19H37.5C36.18,285.87,34.85,285.76,33.53,285.7Z"
        fill="#8ac8fd" />
    <path
        d="M239.78,196.51c-2.2.08-4.41.22-6.61.23L129.71,197c.82-2.18,1.5-4.42,2.48-6.52,3.67-7.83,7.64-15.53,11.09-23.46,2.84-6.51,7.36-9.14,14.46-9,17.18.3,34.37.1,51.55.09,3.07,0,6.14-.07,9.21-.11,2.76,3.86,6,7.48,8.18,11.64C231.33,178.43,235.45,187.53,239.78,196.51Z"
        fill="#f9c501" />
    <path
        d="M239.78,196.51c-4.33-9-8.45-18.08-13.1-26.89-2.19-4.16-5.42-7.78-8.18-11.64l3.62-.44c2.35,0,4.7-.09,7,.05,5.33.32,9.47,2.37,11.84,7.57,4.8,10.52,9.8,20.94,14.72,31.4Z"
        fill="#dfad10" />
    <path
        d="M45.88,414.06c0-.28,0-.56,0-.83q91.26.4,182.51.79c24.47.09,48.95-.51,73.4.24,12,.37,20.17-4.68,27.39-13.12,4.67-5.46,9.52-10.78,14.37-16.09,7.14-7.81,14.14-15.75,21.59-23.26,6.07-6.12,7.11-13.78,7.19-21.53.15-15-.39-30-.65-45a31.73,31.73,0,0,1,14.76,25.67c.68,12.44.09,24.95.05,37.43-2.29,4.49-4.21,9.23-7,13.41-2.48,3.73-5.9,6.84-8.9,10.22-6.52,6.94-13,13.95-19.59,20.79-8.44,8.72-17,17.3-25.57,25.94-5.19.75-10.38,2.14-15.57,2.15q-116.25.21-232.51,0c-5.34,0-10.68-1.34-16-2.05Z"
        fill="#dfad10" />
    <path
        d="M130,393.69c-1.57-4.41-3.24-8.78-4.7-13.23q-2.89-8.79,6.35-8.81,37.51-.07,75,0c14,0,28,.1,41.93.14q-2.25,6.87-4.5,13.74c-2.45,7.4-3.51,8.16-11.38,8.16Z"
        fill="#5a5a5a" />
    <path d="M318.26,317.67a24.65,24.65,0,1,1-24.54,24.46A24.86,24.86,0,0,1,318.26,317.67Z"
        fill="#eaeae9" />
    <path
        d="M92.89,342.29A24.74,24.74,0,0,1,68.1,367a24.65,24.65,0,1,1,.41-49.3A24.68,24.68,0,0,1,92.89,342.29Z"
        fill="#eaeae9" />
    <path
        d="M331.83,285.68c-6.36-12.89-12.66-25.81-19.1-38.67-5-10-10.36-19.76-15.2-29.8s-12.34-16.88-23.35-19.56a25,25,0,0,1-2.46-.9c6.6.06,13.25-.39,19.79.28,12.41,1.28,21.06,8.17,26.41,19.37.94,2,2.13,3.82,3.21,5.73l7.68,15.13q4.47,8.48,8.92,17c.6,1.49,1.08,3,1.8,4.44,4.52,9,9.09,18,13.64,27Z"
        fill="#60b7fd" />
    <path
        d="M130,393.69l102.74,0c7.87,0,8.93-.76,11.38-8.16q2.26-6.86,4.5-13.74c2.65-.06,5.31-.27,7.95-.15,4.21.18,6.57,3.16,5.32,7.15-2.45,7.84-5.25,15.58-7.9,23.36-1.15,3.39-3.74,4-7,4q-40.26-.09-80.5,0c-8.7,0-17.4-.23-26.09.09-4.82.18-7.54-1.6-8.62-6.21C131.3,397.88,130.61,395.8,130,393.69Z"
        fill="#444" />
    <path
        d="M353.17,285.69c-4.55-9-9.12-18-13.64-27-.72-1.42-1.2-3-1.8-4.44,12.52,0,25-.08,37.55,0,7.76,0,11.24,3.65,11.29,11.44,0,3.53.09,7.07,0,10.6-.21,5.93-3.83,9.53-9.79,9.64-7.66.13-15.32.09-23,.13A2.73,2.73,0,0,1,353.17,285.69Z"
        fill="#5a5a5a" />
    <path
        d="M199.32,335.74c0-2.65-.18-5.3.05-7.93.36-4.13,3.16-6.79,6.82-6.6,4,.22,6.24,2.66,6.41,6.5.23,5.41.23,10.86,0,16.27-.18,3.85-2.43,6.24-6.49,6.35-3.72.11-6.34-2.55-6.76-6.67a8.63,8.63,0,0,1,0-.88v-7Z"
        fill="#5a5a5a" />
    <path
        d="M187.29,335.76c0,2.64.18,5.29,0,7.92-.36,4.2-3,6.77-6.75,6.65-4.06-.13-6.28-2.53-6.46-6.38-.25-5.41-.26-10.85,0-16.27.17-3.85,2.4-6.26,6.42-6.47,3.65-.18,6.32,2.5,6.84,6.62a6.48,6.48,0,0,1,0,.88q0,3.53,0,7.05Z"
        fill="#5a5a5a" />
    <path
        d="M148.57,335.58c0-2.64-.09-5.28,0-7.92.17-3.78,2.31-6,6-6.43a6.27,6.27,0,0,1,7.07,5.76,156,156,0,0,1,0,17.57,6.22,6.22,0,0,1-7,5.75c-3.71-.42-5.8-2.62-6-6.38C148.47,341.15,148.57,338.36,148.57,335.58Z"
        fill="#5a5a5a" />
    <path
        d="M238.05,336.13c0,2.49.08,5,0,7.48-.17,3.89-2.64,6.54-6.12,6.73a6.45,6.45,0,0,1-7-6.33c-.24-5.56-.25-11.14,0-16.7a6.47,6.47,0,0,1,6.8-6.12c3.45.09,6,2.8,6.32,6.59,0,.29,0,.58,0,.87Q238.06,332.4,238.05,336.13Z"
        fill="#5a5a5a" />
    <path
        d="M136.23,335.81c0,2.65.12,5.31,0,7.95-.22,3.91-2.83,6.52-6.36,6.59a6.49,6.49,0,0,1-6.79-6.62c-.18-5.3-.18-10.62,0-15.92a6.55,6.55,0,0,1,6.82-6.62c3.49.13,6.13,2.81,6.34,6.66C136.35,330.5,136.23,333.16,136.23,335.81Z"
        fill="#5a5a5a" />
    <path
        d="M250.38,335.63c0-2.65-.13-5.31,0-7.95a6.58,6.58,0,0,1,6.5-6.49,6.49,6.49,0,0,1,6.63,6.36c.22,5.44.22,10.91,0,16.35a6.46,6.46,0,0,1-7,6.44c-3.51-.16-5.94-2.81-6.22-6.75,0-.29,0-.59,0-.88v-7.08Z"
        fill="#5a5a5a" />
    <path
        d="M328.81,237.26l-7.68-15.13c27,.1,50.32-9.69,71-26.39,22.57-18.26,36-41.93,41.65-70.42,2.29-11.47,2-22.81,1-34.09-2.15-24.72-12.6-46.11-28.47-65a21.07,21.07,0,0,1-1.92-3.3c12.29,8.26,22,19.05,29.92,31.39,9.84,15.23,16.37,31.79,17.86,50,2.7,32.85-3.85,63.21-25.44,89.19-18.5,22.28-41.75,36.77-70.39,41.74C347.27,236.78,338,236.62,328.81,237.26Z"
        fill="#47b659" />
    <path
        d="M298.27,164.53c-9.7-9.68-19.44-19.34-29.09-29.07-7.29-7.36-7.66-17.65-1-24.48s17.3-6.61,24.8.8c5,5,10,10,15,15,4.55,4.53,6.13,4.55,10.58.1Q347.08,98.44,375.5,70c4.08-4.09,8.75-6.37,14.6-5.93,3.7,8.69,1.47,15.72-5.17,22.28q-36.51,36-72.55,72.55C308.33,162.93,304,165.1,298.27,164.53Z"
        fill="#eaeae9" />
    <path
        d="M298.27,164.53c5.69.57,10.06-1.6,14.11-5.68q36.09-36.45,72.55-72.55c6.64-6.56,8.87-13.59,5.17-22.28,7.18.67,12,4.57,14.33,11.21,2.23,6.45,1.09,12.54-3.87,17.51Q362.48,130.9,324.29,169C316.55,176.64,306.31,174.72,298.27,164.53Z"
        fill="#d2d1d0" />
    <path d="M401.64,21.14l1.72,1Z" fill="#47b659" />
    <path d="M403.41,22.17l.95.81Z" fill="#47b659" />
    <path
        d="M325.42,428.73c8.53-8.64,17.13-17.22,25.57-25.94,6.63-6.84,13.07-13.85,19.59-20.79,0,16.59.17,33.17,0,49.75-.06,7.51-.38,15.13-8.2,19.5-.37.21-.38,1.05-.56,1.59-7.37,0-14.73.22-22.09,0-8.12-.2-14-6.31-14.3-14.42C325.38,435.21,325.43,432,325.42,428.73Z"
        fill="#5a5a5a" />
    <path
        d="M361.86,452.84c.18-.54.19-1.38.56-1.59,7.82-4.37,8.14-12,8.2-19.5.13-16.58,0-33.16,0-49.75,3-3.38,6.42-6.49,8.9-10.22,2.78-4.18,4.7-8.92,7-13.41,0,27,.15,54,.09,80.93,0,7.22-6.36,13.36-13.65,13.62C369.23,453.05,365.54,452.88,361.86,452.84Z"
        fill="#444" />
    <path
        d="M45.88,414.06l15.43,14.78c0,3.5.07,7-.16,10.51A14.29,14.29,0,0,1,46.8,452.94c-3.5.06-7-.06-10.51-.1,10.14-7.44,9-18.3,8.87-28.92C45.11,420.64,45.62,417.35,45.88,414.06Z"
        fill="#444" />
</svg>